<?xml version="1.0" standalone="no"?>
<!DOCTYPE svg PUBLIC "-//W3C//DTD SVG 20010904//EN"
 "http://www.w3.org/TR/2001/REC-SVG-20010904/DTD/svg10.dtd">
<svg version="1.0" xmlns="http://www.w3.org/2000/svg"
 width="96.000000pt" height="96.000000pt" viewBox="0 0 96.000000 96.000000"
 preserveAspectRatio="xMidYMid meet">
<metadata>
Created by potrace 1.14, written by Peter Selinger 2001-2017
</metadata>
<g transform="translate(0.000000,96.000000) scale(0.100000,-0.100000)"
fill="#000000" stroke="none">
<path d="M580 870 c-88 -24 -133 -44 -211 -96 -149 -98 -258 -264 -290 -438
-14 -79 -13 -200 3 -225 18 -30 99 -47 126 -28 8 6 12 5 12 -4 0 -11 2 -11 10
1 9 13 11 13 20 0 9 -13 10 -13 10 0 0 13 1 13 10 0 8 -12 10 -12 10 -1 0 10
3 11 14 2 11 -9 16 -9 21 0 6 8 10 7 16 -2 7 -11 9 -11 9 -1 0 8 5 10 13 5 17
-11 80 -11 95 0 8 6 12 5 12 -4 0 -11 2 -11 10 1 9 13 11 13 20 0 9 -13 10
-13 10 0 0 9 3 11 8 5 8 -12 32 -13 50 -2 7 5 12 3 12 -3 0 -7 7 -5 16 4 20
20 28 20 20 0 -3 -8 -2 -12 3 -9 6 3 10 13 10 23 1 40 5 52 15 52 6 0 4 5 -4
10 -9 6 -10 10 -3 10 8 0 9 9 3 30 -7 25 -6 30 8 31 10 0 12 3 5 6 -19 7 14
66 32 59 8 -3 17 0 21 6 4 7 3 8 -4 4 -7 -4 -12 -3 -12 2 0 12 47 25 60 17 6
-4 10 -2 10 4 0 6 11 6 30 1 17 -5 30 -5 30 -1 0 4 9 7 20 8 13 1 18 -2 13
-10 -4 -7 1 -6 10 2 10 8 15 16 13 19 -3 2 1 19 8 36 16 39 17 48 4 64 -6 7
-7 12 -1 12 5 0 10 7 10 15 0 8 -5 15 -10 15 -5 0 -3 8 4 17 12 15 12 16 -1 8
-13 -8 -13 -7 -1 8 9 11 10 17 2 17 -13 0 -10 22 4 32 6 5 5 8 -4 8 -9 0 -10
4 -4 13 11 14 11 27 0 45 -5 7 -3 12 5 12 10 0 10 2 -1 9 -7 5 -9 11 -4 14 11
7 10 77 0 95 -5 7 -3 12 3 12 8 0 8 6 0 20 -8 15 -8 20 2 20 9 0 9 3 -2 10 -8
5 -11 10 -6 10 5 0 -1 11 -14 25 -23 25 -29 26 -120 24 -54 -1 -123 -9 -160
-19z"/>
</g>
</svg>
